<svg   xmlns="http://www.w3.org/2000/svg">
  <symbol id="delete" viewBox="0 0 24 24">
<path d="M5 7.25H6.5M6.5 7.25H8.75M6.5 7.25V17.75C6.5 18.9926 7.13236 20 8.375 20H14.75C15.9926 20 17 18.9926 17 17.75V7.25M8.75 7.25H14.75M8.75 7.25V6.5C8.75 5.67157 9.42157 5 10.25 5H13.25C14.0784 5 14.75 5.67157 14.75 6.5V7.25M17 7.25H18.5M17 7.25H14.75M10.25 11.375V15.875M13.25 11.375V15.875" stroke="#FF4040" stroke-width="1.5" stroke-linecap="round"/>
  </symbol>


  <symbol id="alert" viewBox="0 0 24 24">
<path d="M18.5245 14.4083L17.6911 13.025C17.5161 12.7167 17.3578 12.1333 17.3578 11.7917V9.68334C17.3578 7.725 16.2078 6.03334 14.5495 5.24167C14.1161 4.475 13.3161 4 12.3995 4C11.4912 4 10.6745 4.49167 10.2412 5.26667C8.61616 6.075 7.49116 7.75 7.49116 9.68334V11.7917C7.49116 12.1333 7.33282 12.7167 7.15783 13.0167L6.31616 14.4083C5.98283 14.9667 5.90783 15.5833 6.11616 16.15C6.31616 16.7083 6.79116 17.1417 7.40783 17.35C9.02449 17.9 10.7245 18.1667 12.4245 18.1667C14.1245 18.1667 15.8245 17.9 17.4411 17.3583C18.0245 17.1667 18.4745 16.725 18.6911 16.15C18.9078 15.575 18.8495 14.9417 18.5245 14.4083Z" fill="#FF7B2D"/>
<path d="M14.7669 19.0083C14.4169 19.975 13.4919 20.6667 12.4086 20.6667C11.7503 20.6667 11.1003 20.4 10.6419 19.925C10.3753 19.675 10.1753 19.3417 10.0586 19C10.1669 19.0167 10.2753 19.025 10.3919 19.0417C10.5836 19.0667 10.7836 19.0917 10.9836 19.1083C11.4586 19.15 11.9419 19.175 12.4253 19.175C12.9003 19.175 13.3753 19.15 13.8419 19.1083C14.0169 19.0917 14.1919 19.0833 14.3586 19.0583C14.4919 19.0417 14.6253 19.025 14.7669 19.0083Z" fill="#FF7B2D"/>

  </symbol>

  <symbol id="envelop" viewBox="0 0 24 24"> 
<path fill-rule="evenodd" clip-rule="evenodd" d="M7.14411 5C7.15836 5.00001 7.17283 5.00001 7.18751 5.00001H16.9375C16.9522 5.00001 16.9667 5.00001 16.9809 5C17.2874 4.99995 17.4962 4.99992 17.6796 5.02407C18.9417 5.19022 19.9348 6.18334 20.1009 7.4454C20.1251 7.62885 20.1251 7.8376 20.125 8.14411C20.125 8.15836 20.125 8.17283 20.125 8.18751V13.9866C20.125 14.5963 20.125 15.088 20.0925 15.4861C20.059 15.8961 19.9882 16.2562 19.8185 16.5894C19.5488 17.1186 19.1186 17.5489 18.5894 17.8185C18.2562 17.9883 17.8961 18.059 17.4861 18.0925C17.0879 18.125 16.5962 18.125 15.9866 18.125H8.13842C7.52879 18.125 7.03709 18.125 6.63891 18.0925C6.22893 18.059 5.86882 17.9883 5.53566 17.8185C5.00645 17.5489 4.5762 17.1186 4.30655 16.5894C4.1368 16.2562 4.06603 15.8961 4.03253 15.4861C4 15.088 4 14.5962 4.00001 13.9866V8.18751C4.00001 8.17283 4.00001 8.15836 4 8.14411C3.99995 7.8376 3.99992 7.62885 4.02407 7.4454C4.19022 6.18334 5.18334 5.19022 6.4454 5.02407C6.62885 4.99992 6.83761 4.99995 7.14411 5ZM7.18751 6.12501C6.82131 6.12501 6.69269 6.12622 6.59225 6.13944C5.83501 6.23914 5.23914 6.83501 5.13945 7.59225C5.13137 7.6536 5.12777 7.72547 5.1262 7.85557L11.7553 11.5016C11.8663 11.5626 11.9293 11.597 11.9782 11.6204C12.0083 11.6348 12.0217 11.6393 12.0253 11.6403C12.0499 11.6453 12.0752 11.6453 12.0997 11.6403C12.1033 11.6393 12.1167 11.6348 12.1469 11.6204C12.1957 11.597 12.2587 11.5626 12.3697 11.5016L18.9988 7.85557C18.9972 7.72547 18.9936 7.6536 18.9856 7.59225C18.8859 6.83501 18.29 6.23914 17.5328 6.13944C17.4323 6.12622 17.3037 6.12501 16.9375 6.12501H7.18751ZM19 9.13885L12.9119 12.4873C12.898 12.4949 12.8841 12.5027 12.87 12.5104C12.7025 12.6031 12.5234 12.7021 12.3247 12.7426C12.1517 12.7779 11.9733 12.7779 11.8003 12.7426C11.6016 12.7021 11.4226 12.6031 11.255 12.5104C11.241 12.5027 11.227 12.495 11.2131 12.4873L5.12501 9.13885V13.9625C5.12501 14.6019 5.12545 15.0476 5.1538 15.3945C5.18161 15.7349 5.23346 15.9305 5.30894 16.0786C5.47072 16.3962 5.72888 16.6543 6.0464 16.8161C6.19454 16.8916 6.39011 16.9434 6.73052 16.9713C7.07749 16.9996 7.52317 17 8.16251 17H15.9625C16.6018 17 17.0475 16.9996 17.3945 16.9713C17.7349 16.9434 17.9305 16.8916 18.0786 16.8161C18.3961 16.6543 18.6543 16.3962 18.8161 16.0786C18.8916 15.9305 18.9434 15.7349 18.9712 15.3945C18.9996 15.0476 19 14.6019 19 13.9625V9.13885Z" fill="#FF7B2D"/>
 
  </symbol>


  <symbol id="logo" viewBox="0 0 24 24">
    <path d="M22 11.3615V4.56154C22 3.06154 21.36 2.46154 19.77 2.46154H15.73C14.14 2.46154 13.5 3.06154 13.5 4.56154V11.3615C13.5 12.8615 14.14 13.4615 15.73 13.4615H19.77C21.36 13.4615 22 12.8615 22 11.3615Z" stroke="#1E1E6E" stroke-width="1.8" stroke-linecap="round" stroke-linejoin="round"/>
    <path d="M22 20.3615V18.5615C22 17.0615 21.36 16.4615 19.77 16.4615H15.73C14.14 16.4615 13.5 17.0615 13.5 18.5615V20.3615C13.5 21.8615 14.14 22.4615 15.73 22.4615H19.77C21.36 22.4615 22 21.8615 22 20.3615Z" stroke="#1E1E6E" stroke-width="1.8" stroke-linecap="round" stroke-linejoin="round"/>
    <path d="M10.5 13.5615V20.3615C10.5 21.8615 9.86 22.4615 8.27 22.4615H4.23C2.64 22.4615 2 21.8615 2 20.3615V13.5615C2 12.0615 2.64 11.4615 4.23 11.4615H8.27C9.86 11.4615 10.5 12.0615 10.5 13.5615Z" stroke="#1E1E6E" stroke-width="1.8" stroke-linecap="round" stroke-linejoin="round"/>
    <path d="M10.5 4.56154V6.36154C10.5 7.86154 9.86 8.46154 8.27 8.46154H4.23C2.64 8.46154 2 7.86154 2 6.36154V4.56154C2 3.06154 2.64 2.46154 4.23 2.46154H8.27C9.86 2.46154 10.5 3.06154 10.5 4.56154Z" stroke="#1E1E6E" stroke-width="1.8" stroke-linecap="round" stroke-linejoin="round"/>
  </symbol>


  <symbol id="arrow" viewBox="0 0 24 24">
<path d="M8.24749 20.3375C8.0575 20.3375 7.8675 20.2674 7.7175 20.1174C7.4275 19.8275 7.4275 19.3475 7.7175 19.0575L14.2375 12.5375C14.7175 12.0575 14.7175 11.2775 14.2375 10.7975L7.7175 4.2775C7.4275 3.98749 7.4275 3.50749 7.7175 3.2175C8.00749 2.9275 8.48749 2.9275 8.7775 3.2175L15.2975 9.7375C15.8075 10.2475 16.0975 10.9375 16.0975 11.6675C16.0975 12.3975 15.8174 13.0875 15.2975 13.5975L8.7775 20.1174C8.6275 20.2575 8.4375 20.3375 8.24749 20.3375Z" fill="#6D6D74"/>
  </symbol>

</svg>

